<svg version="1.1" xmlns="http://www.w3.org/2000/svg" xmlns:xlink="http://www.w3.org/1999/xlink" x="0px" y="0px"
	 viewBox="0 0 268 275.4" style="enable-background:new 0 0 268 275.4;" xml:space="preserve">
<style type="text/css">
	.st0{fill:#262524;}
	.st1{display:none;}
	.st2{display:inline;fill:none;stroke:#6BCCDF;stroke-miterlimit:10;}
	.st3{display:inline;fill:none;stroke:#6BCCDF;stroke-width:0.9991;stroke-miterlimit:10;}
	.st4{display:inline;fill:none;stroke:#6BCCDF;stroke-width:1.0006;stroke-miterlimit:10;}
</style>
<g id="Dead_Zone">
</g>
<g id="Layer_1">
	<g>
		<path class="st0" d="M44.9,260.1H18c-0.9,0-1.7-0.8-1.7-1.7v-26.9c0-0.9,0.8-1.7,1.7-1.7h26.9c0.9,0,1.7,0.8,1.7,1.7v26.9
			C46.5,259.3,45.8,260.1,44.9,260.1z"/>
		<path class="st0" d="M246.8,80.2c-7.1-15.9-17.1-29.2-29.8-39.6c-12.4-10.2-27.2-17.8-43.8-22.6c-16-4.6-33.4-6.9-51.6-6.9H17.3
			c-0.5,0-0.9,0.4-0.9,0.9v185.2c0,0.5,0.4,0.9,0.9,0.9H74c2.3,0,4.2,1.9,4.2,4.2l0,56.8c0,0.5,0.4,0.9,0.9,0.9h42.6
			c18.3,0,35.6-2.4,51.7-7.1c16.6-4.9,31.3-12.5,43.7-22.7c12.6-10.4,22.7-23.7,29.8-39.4c7-15.6,10.6-34.1,10.6-55.2
			C257.4,114.5,253.8,95.9,246.8,80.2z M108.6,103.4c0.8-0.8,1.8-1.2,3-1.2h19.5c6,0,11.6,0.7,16.7,2.2c4.5,1.3,8.3,3.2,11.6,5.9
			c3,2.5,5.4,5.7,7.2,9.6c1.8,4.1,2.8,9.4,2.8,15.6c0,6.2-0.9,11.4-2.8,15.5c-1.8,4-4.1,7.1-7.2,9.6c-3.3,2.7-7.1,4.7-11.7,6
			c-5.1,1.5-10.7,2.2-16.6,2.2h-19.5c-2.3,0-4.2-1.9-4.2-4.2l0-58.2C107.4,105.3,107.8,104.2,108.6,103.4z M108.6,199.3
			c0.8-0.8,1.8-1.2,3-1.2h19.5c8.8,0,17.1-1.2,24.9-3.4c8.3-2.4,15.7-6.3,22-11.5c6.5-5.3,11.6-12.1,15.3-20.2
			c3.5-7.9,5.3-17.1,5.3-27.5c0-10.3-1.8-19.6-5.3-27.5c-3.6-8.1-8.8-14.9-15.3-20.3c-6.3-5.2-13.7-9-22.1-11.4
			c-7.7-2.2-16.1-3.3-24.8-3.3H79c-0.2,0-0.5,0.1-0.6,0.3c-0.2,0.2-0.3,0.4-0.3,0.6l0,90.8c0,1.1-0.4,2.2-1.2,3
			c-0.8,0.8-1.8,1.2-3,1.2H49.8c-2.3,0-4.2-1.9-4.2-4.2V44.5c0-2.3,1.9-4.2,4.2-4.2h71.9c15.5,0,30.1,1.9,43.5,5.8
			c12.8,3.7,24,9.4,33.3,17.1c9.3,7.6,16.3,17.1,21.6,29c5.3,11.9,8,26.5,8,43.4c0,16.9-2.7,31.4-8,43.2
			c-5.3,11.8-12.4,21.2-21.7,28.8c-9.4,7.7-20.6,13.5-33.4,17.3c-13.4,3.9-28,5.9-43.4,5.9h-10.1c-2.3,0-4.2-1.9-4.2-4.2l0-24.3
			C107.4,201.1,107.8,200.1,108.6,199.3z"/>
	</g>
</g>
</svg>
