<?xml version="1.0" encoding="utf-8"?>
<!-- Generator: Adobe Illustrator 20.1.0, SVG Export Plug-In . SVG Version: 6.00 Build 0)  -->
<svg version="1.1" xmlns="http://www.w3.org/2000/svg" xmlns:xlink="http://www.w3.org/1999/xlink" x="0px" y="0px"
	 viewBox="0 0 1481.1 244.9" style="enable-background:new 0 0 1481.1 244.9;" xml:space="preserve">
<style type="text/css">
	.st0{fill:#262524;}
	.st1{display:none;}
	.st2{display:inline;fill:none;stroke:#6BCCDF;stroke-miterlimit:10;}
	.st3{display:inline;fill:none;stroke:#6BCCDF;stroke-width:0.9991;stroke-miterlimit:10;}
	.st4{display:inline;fill:none;stroke:#6BCCDF;stroke-width:1.0006;stroke-miterlimit:10;}
</style>
<g id="Layer_1">
	<g>
		<path class="st0" d="M10,138.1v-0.4c0-31.3,22.8-49.9,45.8-49.9c17.8,0,29.3,9.6,36.7,20.4V50.5h14.3v135.3H92.5v-19.3
			c-7.8,11.5-19.1,21.3-36.7,21.3C32.8,187.8,10,169.6,10,138.1z M93,137.9v-0.4c0-22.1-16.9-36.9-34.7-36.9
			c-18.5,0-33.7,13.7-33.7,36.9v0.4c0,22.6,15.6,37.1,33.7,37.1C76.2,175,93,160,93,137.9z"/>
		<path class="st0" d="M180.9,175.6c13.2,0,22.4-5.4,30.2-13.5l8.9,8c-9.6,10.7-21.3,18-39.5,18c-26.3,0-47.8-20.2-47.8-50
			c0-27.8,19.5-50,46-50c28.4,0,44.7,22.6,44.7,50.8c0,1.3,0,2.8-0.2,5h-76C149.2,163.9,164,175.6,180.9,175.6z M208.9,132.2
			c-1.7-17.4-11.7-32.2-30.6-32.2c-16.5,0-29.1,13.7-31.1,32.2H208.9z"/>
		<path class="st0" d="M240.4,173.5l7.2-10.2c10.4,7.8,21.9,12.2,33.2,12.2c11.5,0,19.8-5.9,19.8-15.2V160
			c0-9.6-11.3-13.3-23.9-16.9c-15-4.3-31.7-9.5-31.7-27.1v-0.4c0-16.5,13.7-27.4,32.6-27.4c11.7,0,24.6,4.1,34.5,10.6l-6.5,10.7
			c-8.9-5.7-19.1-9.3-28.4-9.3c-11.3,0-18.5,5.9-18.5,13.9v0.4c0,9.1,11.9,12.6,24.6,16.5c14.8,4.4,30.8,10.2,30.8,27.4v0.4
			c0,18.2-15,28.7-34.1,28.7C266.3,187.6,251.1,182.2,240.4,173.5z"/>
		<path class="st0" d="M341,53.2h16.3V69H341V53.2z M341.9,89.9h14.3v95.8h-14.3V89.9z"/>
		<path class="st0" d="M388.2,202.4l6.5-11.1c10.9,8,23.2,12.2,36.9,12.2c21.1,0,34.8-11.7,34.8-34.1v-11.3
			c-8.3,11.1-20,20.2-37.6,20.2c-23,0-45-17.2-45-44.9v-0.4c0-28,22.2-45.2,45-45.2c18,0,29.7,8.9,37.4,19.3V89.9h14.3v79.1
			c0,14.8-4.4,26.1-12.2,33.9c-8.5,8.5-21.3,12.8-36.5,12.8C415.8,215.8,401,211.3,388.2,202.4z M466.8,133.3v-0.4
			c0-19.6-17-32.4-35.2-32.4c-18.2,0-33.2,12.6-33.2,32.2v0.4c0,19.3,15.4,32.6,33.2,32.6C449.8,165.7,466.8,152.6,466.8,133.3z"/>
		<path class="st0" d="M512.4,89.9h14.3v16.7c6.3-10.4,16.3-18.7,32.8-18.7c23.2,0,36.7,15.6,36.7,38.4v59.5h-14.3v-56
			c0-17.8-9.6-28.9-26.5-28.9c-16.5,0-28.7,12-28.7,30v54.9h-14.3V89.9z"/>
	</g>
	<g>
		<path class="st0" d="M741.6,179.4v3.5l-29.9,4.5c-5.7,0.8-5.7-3.7-5.7-3.7v-12.6c-6.5,12-21.6,16.5-31.1,16.5
			c-23,0-43.3-18.1-43.3-50.2c0-32.7,21.6-47.4,50-47.4c9.4,0,17.9,2.2,24.4,6.1V57.2c0-7.1-2-9.2-10.4-12.2v-3.5l35.6-7.5v132
			C731.3,176,733.3,178.4,741.6,179.4z M706,127.4c0-25.6-12.6-34-24.2-34c-14.8,0-21.4,11.2-21.4,42.1c0,32.7,6.7,44.9,23.2,44.9
			c13.8,0,22.4-10.2,22.4-24.4V127.4z"/>
		<path class="st0" d="M796.4,182.3v3.5h-41.7v-3.5c7.7-2.4,8.1-11,8.1-21.4v-45.2c0-6.9-2-9.8-10.4-14.2v-3.5l35.6-8.1v71
			C788,172.3,789,180.3,796.4,182.3z M773.4,73.7c-7.7,0-13.8-6.1-13.8-13.8c0-7.7,6.1-13.8,13.8-13.8s14,6.1,14,13.8
			C787.4,67.6,781.1,73.7,773.4,73.7z"/>
		<path class="st0" d="M881.8,176.6c0,0-7.7,11-28.5,11c-24.6,0-36.8-9.4-36.8-9.4v-25.6h3.5c3.1,7.9,9.6,31.5,33.4,31.5
			c14.4,0,16.9-18.3,1.4-28.5l-20.5-12.4c-19.7-12-25-28.5-13.8-43.1c0,0,7.7-10.2,28.1-10.2c23.4,0,33.6,6.1,33.6,6.1v22.8h-3.5
			c-2.6-7.1-9.2-25.4-30.1-25.4c-13.2,0-18.9,15.7-1.2,26.8l20.5,12.8C885.9,144.3,892,161.9,881.8,176.6z"/>
		<path class="st0" d="M965.4,166l3.1,1.8c-4.1,9.6-16.5,19.7-30.1,19.7c-16.1,0-25.6-6.5-25.6-31.1V95.2h-10.2l-0.6-3.5h10.8V64.5
			l25.4-4.3v31.5h24.2l-0.8,3.5h-23.4v60.6c0,11.4,4.9,17.3,15.1,17.3C959.1,173.1,963.6,169.1,965.4,166z"/>
		<path class="st0" d="M1022.1,182.3v3.5h-41.7v-3.5c7.7-2.4,8.1-11,8.1-21.4v-45.2c0-6.9-2-9.8-10.4-14.2v-3.5l35.6-8.1v71
			C1013.8,172.3,1014.8,180.3,1022.1,182.3z M999.1,73.7c-7.7,0-13.8-6.1-13.8-13.8c0-7.7,6.1-13.8,13.8-13.8s14,6.1,14,13.8
			C1013.2,67.6,1006.9,73.7,999.1,73.7z"/>
		<path class="st0" d="M1080.3,182.3v3.5h-41.7v-3.5c7.7-2.2,8.1-10.8,8.1-21.2V58.2c0-7.1-2-10.2-10.2-13.2v-3.5l35.6-7.5v127.1
			C1072.2,172.3,1073.2,180.5,1080.3,182.3z"/>
		<path class="st0" d="M1136.2,182.3v3.5h-41.7v-3.5c7.7-2.2,8.1-10.8,8.1-21.2V58.2c0-7.1-2-10.2-10.2-13.2v-3.5l35.6-7.5v127.1
			C1128.1,172.3,1129.1,180.5,1136.2,182.3z"/>
		<path class="st0" d="M1242,136.9h-64.7c1.6,19.9,11.8,30.3,25.4,33.4c11,2.4,27.3-1.6,32.3-11.2l3.5,1.8
			c-3.3,10.6-15.3,26.6-42.5,26.6c-26.6,0-44.9-24.6-44.9-48.4c0-28.7,19.5-49.2,47.6-49.2C1228.2,89.9,1242,105.2,1242,136.9z
			 M1217.2,133.5c0-25.6-8.3-40.1-19.5-40.1c-12,0-20.3,20.5-20.3,40.1H1217.2z"/>
		<path class="st0" d="M1329.5,93.6c6.3,5.5,6.9,15.3,1.4,21.4c-5.5,6.3-14.8,7.1-21.4,1.6c-3.1-2.8-4.7-6.3-4.7-10
			c0-2.2-8.3-0.2-15.9,12v42.3c0,11.4,1,19.3,8.3,21.4v3.5h-42.1v-3.5c7.9-2.4,8.1-10.8,8.1-21.4v-45.2c0-6.9-1.8-10-10.2-14.2v-3.5
			l35.8-8.1v23c10.8-16.9,19.1-19.9,24-22C1317.3,89.1,1325,89.9,1329.5,93.6z"/>
		<path class="st0" d="M1445.8,91.8v3.5c-4.3,0-13.6,0.4-26.6,31.7l-31.1,82c-5.3,13.8-11.4,19.5-15.3,22.6
			c-3.7,3.1-10.8,4.3-15.7,2c-7.1-3.3-10.2-11.6-7.1-18.7c3.3-7.1,11.6-10.4,18.7-7.1c3.7,1.6,5.9,4.9,6.9,8.3c0.8,2.4,5.7,1,9-7.5
			l7.7-20.9c-12.6-29.1-38.4-84.4-38.4-84.4c-3.3-7.9-9.8-7.9-12.8-7.9v-3.5h48v3.5c-10.6,0-5.3,12.4-5.3,12.4l21.6,46l10.8-27.5
			c0,0,13.4-31.1-10.2-30.9v-3.5H1445.8z"/>
		<path class="st0" d="M1452.7,186.8c-9.6,0-17.3-7.5-17.3-17.1c0-9.6,7.7-17.3,17.3-17.3c9.4,0,17.1,7.7,17.1,17.3
			C1469.7,179.2,1462,186.8,1452.7,186.8z"/>
	</g>
</g>
</svg>
